<svg xmlns="http://www.w3.org/2000/svg" viewBox="0 0 1600 900" width="1600" height="900" fill="none">
  <defs>
    <radialGradient id="bgGlow6" cx="50%" cy="40%" r="65%">
      <stop offset="0%" stop-color="#191917" />
      <stop offset="100%" stop-color="#090908" />
    </radialGradient>
    <pattern id="radarGrid" width="40" height="40" patternUnits="userSpaceOnUse">
      <path d="M 40 0 L 0 0 0 40" fill="none" stroke="#22201E" stroke-width="0.6" />
    </pattern>
    <linearGradient id="streamGrad" x1="0%" y1="0%" x2="100%" y2="0%">
      <stop offset="0%" stop-color="#BE7B72" />
      <stop offset="50%" stop-color="#10B981" />
      <stop offset="100%" stop-color="#3B82F6" />
    </linearGradient>
  </defs>

  <rect width="1600" height="900" fill="url(#bgGlow6)" />
  <rect width="1600" height="900" fill="url(#radarGrid)" opacity="0.45" />

  <!-- Top Metadata Ribbon -->
  <g transform="translate(80, 70)">
    <text x="0" y="0" fill="#BE7B72" font-family="'Work Sans', system-ui, sans-serif" font-size="12" font-weight="300" letter-spacing="4">PHASE 06 // ZERO-DOWNTIME CUTOVER &amp; GLOBAL EDGE OBSERVABILITY</text>
    <text x="1440" y="0" text-anchor="end" fill="#75726C" font-family="ui-monospace, monospace" font-size="11" letter-spacing="2">DEPLOYMENT SUITE: CUTOVER-PROD-v2</text>
    <line x1="0" y1="20" x2="1440" y2="20" stroke="#2E2B27" stroke-width="1" />
  </g>

  <!-- Left: Live Traffic Orchestration & Zero-Downtime Transition -->
  <g transform="translate(80, 140)">
    <rect width="760" height="670" rx="3" fill="#141311" stroke="#2E2B27" stroke-width="1" />
    <path d="M 0 0 L 760 0 L 760 48 L 0 48 Z" fill="#1A1916" />
    <circle cx="28" cy="24" r="4" fill="#10B981" />
    <text x="44" y="28" fill="#F0EDE8" font-family="'Work Sans', sans-serif" font-size="13" font-weight="300" letter-spacing="2">BLUE / GREEN TRAFFIC SHIFT TELEMETRY</text>
    <text x="730" y="28" text-anchor="end" fill="#10B981" font-family="ui-monospace, monospace" font-size="11">● 100% CUTOVER COMPLETE</text>
    <line x1="0" y1="48" x2="760" y2="48" stroke="#2E2B27" stroke-width="1" />

    <!-- Traffic Split Bar -->
    <g transform="translate(40, 80)">
      <text x="0" y="0" fill="#75726C" font-family="ui-monospace, monospace" font-size="10" letter-spacing="1">INSTANTANEOUS DNS TRAFFIC ROUTING</text>
      
      <g transform="translate(0, 20)">
        <rect width="680" height="40" fill="#1C1A17" stroke="#2A2724" stroke-width="1" rx="2" />
        <rect width="680" height="40" fill="#10B981" opacity="0.9" rx="2" />
        <text x="24" y="25" fill="#FFFFFF" font-family="ui-monospace, monospace" font-size="12" font-weight="bold">ACTIVE PRODUCTION (GREEN): 100.0% OF REQUESTS</text>
      </g>

      <g transform="translate(0, 80)">
        <text x="0" y="0" fill="#75726C" font-family="ui-monospace, monospace" font-size="10" letter-spacing="1">LEGACY INFRASTRUCTURE (DRAINED)</text>
        <rect y="10" width="680" height="12" fill="#22201D" rx="2" />
        <text x="680" y="38" text-anchor="end" fill="#75726C" font-family="ui-monospace, monospace" font-size="10">0 ACTIVE CONNECTIONS</text>
      </g>
    </g>

    <!-- Real-time Request Rate & Throughput Graph -->
    <g transform="translate(40, 260)">
      <rect width="680" height="340" fill="#181714" stroke="#2A2724" stroke-width="1" rx="2" />
      <text x="24" y="32" fill="#EFECE6" font-family="'Work Sans', sans-serif" font-size="12" font-weight="300" letter-spacing="2">REAL-TIME OBSERVABILITY TELEMETRY</text>
      <line x1="24" y1="46" x2="656" y2="46" stroke="#2A2724" stroke-width="1" />

      <!-- Latency & Throughput Wave -->
      <g transform="translate(24, 70)">
        <path d="M 0 160 Q 60 140 120 150 T 240 120 T 360 80 T 480 60 T 632 40" fill="none" stroke="url(#streamGrad)" stroke-width="2.5" />
        <path d="M 0 160 Q 60 140 120 150 T 240 120 T 360 80 T 480 60 T 632 40 L 632 200 L 0 200 Z" fill="#10B981" fill-opacity="0.08" />

        <line x1="0" y1="200" x2="632" y2="200" stroke="#2E2B27" stroke-width="1" />
        <line x1="0" y1="100" x2="632" y2="100" stroke="#22201E" stroke-width="1" stroke-dasharray="4 4" />

        <text x="0" y="230" fill="#75726C" font-family="ui-monospace, monospace" font-size="10">00:00:00 (CUTOVER)</text>
        <text x="316" y="230" text-anchor="middle" fill="#75726C" font-family="ui-monospace, monospace" font-size="10">+00:15:00 (VERIFIED)</text>
        <text x="632" y="230" text-anchor="end" fill="#10B981" font-family="ui-monospace, monospace" font-size="10">+00:30:00 (STABLE)</text>
      </g>
    </g>
  </g>

  <!-- Right: DNS Propagation & Search Equity Redirect Map -->
  <g transform="translate(880, 140)">
    <rect width="640" height="670" rx="3" fill="#141311" stroke="#2E2B27" stroke-width="1" />
    <path d="M 0 0 L 640 0 L 640 48 L 0 48 Z" fill="#1A1916" />
    <circle cx="28" cy="24" r="4" fill="#BE7B72" />
    <text x="44" y="28" fill="#F0EDE8" font-family="'Work Sans', sans-serif" font-size="13" font-weight="300" letter-spacing="2">301 REDIRECT &amp; SEARCH EQUITY MAPPING</text>
    <line x1="0" y1="48" x2="640" y2="48" stroke="#2E2B27" stroke-width="1" />

    <!-- Redirect Ledger -->
    <g transform="translate(40, 80)">
      <rect width="560" height="300" fill="#181714" stroke="#2A2724" stroke-width="1" rx="2" />
      <text x="24" y="32" fill="#BE7B72" font-family="'Work Sans', sans-serif" font-size="11" letter-spacing="2">ZERO EQUITY LOSS MAPPING</text>
      <line x1="24" y1="46" x2="536" y2="46" stroke="#2A2724" stroke-width="1" />

      <g transform="translate(24, 65)" font-family="ui-monospace, monospace" font-size="11">
        <text x="0" y="20" fill="#A09D97">LEGACY: /services/old-platform</text>
        <text x="0" y="40" fill="#10B981">→ 301 MOVED: /services/systems</text>

        <text x="0" y="80" fill="#A09D97">LEGACY: /journal/insights-2024</text>
        <text x="0" y="100" fill="#10B981">→ 301 MOVED: /lobby/insights-2024</text>

        <text x="0" y="140" fill="#A09D97">LEGACY: /contact-form-legacy</text>
        <text x="0" y="160" fill="#10B981">→ 301 MOVED: /start-a-project</text>

        <text x="0" y="200" fill="#75726C">TOTAL REDIRECTS AUDITED: 844 // 0 BROKEN</text>
      </g>
    </g>

    <!-- Global Edge Verification Table -->
    <g transform="translate(40, 420)">
      <rect width="560" height="200" fill="#1C1A17" stroke="#33302B" stroke-width="1" rx="2" />
      <text x="24" y="32" fill="#EFECE6" font-family="'Work Sans', sans-serif" font-size="11" letter-spacing="2">GLOBAL DNS CUTOVER PROPAGATION</text>
      <line x1="24" y1="46" x2="536" y2="46" stroke="#33302B" stroke-width="1" />

      <g transform="translate(24, 75)" font-family="ui-monospace, monospace" font-size="11">
        <circle cx="10" cy="5" r="4" fill="#10B981" />
        <text x="25" y="10" fill="#F0EDE8">Cloudflare Edge Anycast:</text>
        <text x="512" y="10" text-anchor="end" fill="#10B981">PROPAGATED</text>

        <circle cx="10" cy="40" r="4" fill="#10B981" />
        <text x="25" y="45" fill="#F0EDE8">Vercel Edge Network:</text>
        <text x="512" y="45" text-anchor="end" fill="#10B981">PROPAGATED</text>

        <circle cx="10" cy="75" r="4" fill="#10B981" />
        <text x="25" y="80" fill="#F0EDE8">TLS Certificate Handshake:</text>
        <text x="512" y="80" text-anchor="end" fill="#10B981">VERIFIED</text>
      </g>
    </g>
  </g>
</svg>
